HIERARCHY
ROOT root
{
	OFFSET 0.000000 0.000000 0.000000
	CHANNELS 6 Xposition Yposition Zposition Zrotation Yrotation Xrotation
	JOINT lhip
	{
		OFFSET 0.058581 -0.082280 -0.017664
		CHANNELS 3 Zrotation Yrotation Xrotation
		JOINT lknee
		{
			OFFSET 0.043451 -0.386469 0.008037
			CHANNELS 3 Zrotation Yrotation Xrotation
			JOINT lankle
			{
				OFFSET -0.014790 -0.426874 -0.037428
				CHANNELS 3 Zrotation Yrotation Xrotation
				JOINT ltoe
				{
					OFFSET 0.041054 -0.060286 0.122042
					CHANNELS 3 Zrotation Yrotation Xrotation
					End Site
					{
						OFFSET 0.000000 0.000000 0.000000
					}
				}
			}
		}
	}
	JOINT rhip
	{
		OFFSET -0.060310 -0.090513 -0.013543
		CHANNELS 3 Zrotation Yrotation Xrotation
		JOINT rknee
		{
			OFFSET -0.043257 -0.383688 -0.004843
			CHANNELS 3 Zrotation Yrotation Xrotation
			JOINT rankle
			{
				OFFSET 0.019056 -0.420046 -0.034562
				CHANNELS 3 Zrotation Yrotation Xrotation
				JOINT rtoe
				{
					OFFSET -0.034840 -0.062106 0.130323
					CHANNELS 3 Zrotation Yrotation Xrotation
					End Site
					{
						OFFSET 0.000000 0.000000 0.000000
					}
				}
			}
		}
	}
	JOINT lowerback
	{
		OFFSET 0.004439 0.124404 -0.038385
		CHANNELS 3 Zrotation Yrotation Xrotation
		JOINT upperback
		{
			OFFSET 0.004488 0.137956 0.026820
			CHANNELS 3 Zrotation Yrotation Xrotation
			JOINT chest
			{
				OFFSET -0.002265 0.056032 0.002855
				CHANNELS 3 Zrotation Yrotation Xrotation
				JOINT lowerneck
				{
					OFFSET -0.013390 0.211636 -0.033468
					CHANNELS 3 Zrotation Yrotation Xrotation
					JOINT upperneck
					{
						OFFSET 0.010113 0.088937 0.050410
						CHANNELS 3 Zrotation Yrotation Xrotation
						End Site
						{
							OFFSET 0.000000 0.000000 0.000000
						}
					}
				}
				JOINT lclavicle
				{
					OFFSET 0.071702 0.114000 -0.018898
					CHANNELS 3 Zrotation Yrotation Xrotation
					JOINT lshoulder
					{
						OFFSET 0.122921 0.045205 -0.019046
						CHANNELS 3 Zrotation Yrotation Xrotation
						JOINT lelbow
						{
							OFFSET 0.255332 -0.015649 -0.022946
							CHANNELS 3 Zrotation Yrotation Xrotation
							JOINT lwrist
							{
								OFFSET 0.265709 0.012698 -0.007375
								CHANNELS 3 Zrotation Yrotation Xrotation
								End Site
								{
									OFFSET 0.000000 0.000000 0.000000
								}
							}
						}
					}
				}
				JOINT rclavicle
				{
					OFFSET -0.082954 0.112472 -0.023707
					CHANNELS 3 Zrotation Yrotation Xrotation
					JOINT rshoulder
					{
						OFFSET -0.113228 0.046853 -0.008472
						CHANNELS 3 Zrotation Yrotation Xrotation
						JOINT relbow
						{
							OFFSET -0.260127 -0.014369 -0.031269
							CHANNELS 3 Zrotation Yrotation Xrotation
							JOINT rwrist
							{
								OFFSET -0.269108 0.006794 -0.006027
								CHANNELS 3 Zrotation Yrotation Xrotation
								End Site
								{
									OFFSET 0.000000 0.000000 0.000000
								}
							}
						}
					}
				}
			}
		}
	}
}
MOTION
Frames: 5
Frame Time: 0.033333
-0.887067 0.397110 1.002416 58.548009 -0.325459 82.926264 2.871843 3.309853 9.931478 -6.254786 -1.764891 4.229565 -1.516132 10.160806 -18.456329 0.000000 -0.000000 0.000000 0.782136 -2.899476 2.648775 1.271899 -4.699978 16.189370 1.762319 -9.104294 -15.736889 0.000000 -0.000000 0.000000 2.743375 -1.305518 4.928054 1.370339 -3.097063 6.454701 -1.632462 -2.249576 3.826299 1.979345 2.194512 3.610200 -3.273288 -0.522222 20.910181 -26.179375 -0.413332 2.683424 -58.604919 -8.791323 12.729160 8.375879 -29.458222 4.339750 2.774165 -8.566594 -12.106204 24.274300 2.187868 0.398316 55.283389 3.821316 16.400902 -8.936363 32.724572 2.717817 4.908150 7.770716 -13.298960 
-0.888736 0.394804 1.001258 59.184020 -0.361961 82.576276 2.923713 2.892286 9.627730 -6.335647 -1.509077 5.412228 -1.383643 10.326690 -19.136117 0.000000 -0.000000 0.000000 0.966261 -2.430387 2.825950 1.430590 -4.950181 16.666450 1.901061 -9.847157 -16.207383 0.000000 -0.000000 0.000000 2.900150 -1.473797 5.357775 1.348415 -2.968632 6.324058 -1.610714 -2.308100 4.016699 2.071507 2.106398 2.971622 -3.298110 -0.620801 21.237049 -26.232180 -0.496225 2.479078 -58.917515 -8.943891 12.471151 8.976096 -29.019766 3.861891 2.274934 -8.945281 -11.676070 24.280120 2.299334 0.282610 55.300185 3.978594 16.182499 -8.963217 31.713218 2.403673 5.100361 7.750212 -12.706282 
-0.890619 0.392788 1.000505 59.780319 -0.421320 82.254575 2.960738 2.454370 8.975976 -6.513481 -1.538417 7.202996 -1.386689 10.935541 -20.084617 0.000000 -0.000000 0.000000 1.153501 -2.154917 2.917467 1.427509 -5.215288 17.127047 1.765492 -10.343189 -16.629461 0.000000 -0.000000 0.000000 2.882906 -1.433006 5.737304 1.447887 -2.987339 6.241222 -1.591520 -2.290557 4.230662 2.293564 2.044167 2.688393 -3.244795 -0.835015 21.157365 -26.242783 -0.422641 2.274540 -58.862367 -9.096671 12.706004 8.684163 -28.877985 4.070752 2.587232 -8.757351 -11.823942 24.444475 2.263283 -0.033678 55.135136 4.086303 16.188975 -8.881920 30.555767 2.167955 4.848066 7.624855 -12.725237 
-0.892786 0.391162 1.000071 60.473542 -0.588956 81.980196 2.871662 1.684923 7.517871 -6.878397 -1.245134 10.289366 -1.551648 11.875819 -22.106398 0.000000 -0.000000 0.000000 1.157288 -2.319932 2.950689 1.391487 -5.334886 17.500712 1.651951 -10.622956 -17.071379 0.000000 -0.000000 0.000000 2.826566 -1.229108 6.029323 1.575934 -3.207811 6.166598 -1.610322 -2.281262 4.552969 2.465456 1.930481 2.426996 -3.151016 -1.043361 21.028510 -26.138599 -0.397910 2.004755 -59.303604 -9.290968 12.947450 8.554134 -28.235709 4.496084 2.889973 -8.492025 -11.988045 24.453965 2.151146 -0.388015 55.220334 4.270374 16.065529 -8.865936 28.967429 2.105672 4.700238 7.330455 -12.770421 
-0.893995 0.390886 0.999759 60.712093 -0.783093 81.982689 2.641718 1.240993 6.455222 -6.962666 -0.553635 12.095186 -1.353523 12.505318 -23.270174 0.000000 -0.000000 0.000000 1.012539 -2.606629 2.783200 1.339283 -5.125298 17.702527 1.603676 -10.689220 -17.247298 0.000000 -0.000000 0.000000 2.780839 -0.936897 5.988012 1.633324 -3.318870 6.187325 -1.659412 -2.282300 4.716184 2.546052 1.785023 2.317211 -3.084616 -1.124458 21.031555 -26.067550 -0.465902 1.914128 -59.662203 -9.387938 13.086272 8.459554 -27.723706 4.815933 2.824437 -8.429398 -11.985922 24.393878 2.083688 -0.444604 55.330075 4.343582 15.969733 -8.956032 28.126510 1.927305 4.772785 7.200917 -12.826192 
